<?xml version="1.0" standalone="no"?>
<!DOCTYPE svg PUBLIC "-//W3C//DTD SVG 20010904//EN"
 "http://www.w3.org/TR/2001/REC-SVG-20010904/DTD/svg10.dtd">
<svg version="1.0" xmlns="http://www.w3.org/2000/svg"
 width="1372.000000pt" height="1920.000000pt" viewBox="0 0 1372.000000 1920.000000"
 preserveAspectRatio="xMidYMid meet">

<g transform="translate(0.000000,1920.000000) scale(0.100000,-0.100000)"
fill="#adadad" stroke="none" opacity="0.2">
<path d="M695 17870 c-4 -7 7 -27 29 -49 20 -20 36 -41 36 -45 0 -13 65 -83
294 -317 495 -509 688 -709 811 -845 44 -49 114 -125 156 -169 92 -97 199
-211 231 -246 12 -14 62 -68 109 -120 48 -52 99 -110 115 -129 15 -19 61 -69
100 -110 40 -41 90 -97 110 -124 21 -28 45 -57 53 -66 42 -43 203 -220 237
-260 22 -25 62 -69 91 -97 28 -29 66 -73 82 -97 17 -24 35 -46 39 -48 5 -1 39
-39 76 -83 37 -44 95 -113 129 -154 34 -40 75 -88 90 -105 16 -17 38 -42 51
-56 12 -14 65 -79 118 -145 53 -66 117 -140 142 -164 25 -24 46 -50 46 -58 0
-19 139 -183 155 -183 19 0 47 -37 85 -113 25 -51 48 -81 79 -105 52 -39 108
-109 123 -155 15 -44 70 -110 123 -148 53 -38 89 -88 107 -147 13 -44 71 -122
90 -122 16 0 85 -63 117 -107 26 -36 68 -128 85 -189 4 -12 42 -53 84 -92 93
-84 131 -135 148 -204 17 -63 50 -114 86 -129 38 -16 115 -89 127 -122 6 -16
11 -40 11 -55 0 -31 40 -82 64 -82 9 0 19 -7 22 -15 4 -8 12 -15 20 -15 8 0
14 -6 14 -13 0 -7 8 -20 19 -29 10 -8 31 -48 46 -87 14 -39 32 -71 39 -71 27
0 84 -76 107 -143 14 -44 31 -74 46 -85 66 -46 93 -75 99 -110 10 -51 41 -99
69 -106 26 -7 68 -70 81 -119 3 -15 28 -49 55 -75 40 -38 50 -55 55 -92 7 -49
40 -107 66 -115 26 -9 51 -56 59 -113 5 -33 17 -66 33 -87 14 -18 26 -38 26
-42 0 -5 5 -14 12 -21 15 -15 38 -81 38 -111 0 -16 16 -39 45 -67 31 -29 45
-49 45 -68 0 -14 5 -26 10 -26 6 0 10 -6 9 -12 -3 -27 2 -37 20 -43 27 -8 57
-62 65 -117 7 -44 6 -47 -25 -62 -17 -9 -35 -13 -39 -11 -5 3 -21 0 -37 -6
-30 -13 -38 -15 -65 -17 -11 -1 -15 -8 -12 -16 5 -14 -28 -40 -38 -31 -8 8
-71 -17 -92 -37 -11 -10 -27 -18 -37 -18 -9 0 -28 -9 -43 -21 -15 -12 -45 -23
-67 -26 -25 -4 -44 -13 -50 -24 -6 -11 -21 -19 -37 -19 -21 0 -24 -2 -12 -10
13 -8 12 -11 -5 -24 -11 -9 -25 -16 -31 -16 -5 0 -23 -14 -39 -30 -16 -16 -34
-30 -41 -30 -7 0 -25 -11 -39 -26 -21 -21 -33 -25 -72 -22 l-46 3 -44 85 c-25
47 -63 110 -86 140 -23 30 -54 73 -69 95 -22 33 -164 185 -173 185 -1 0 -29
26 -62 58 -32 31 -77 66 -98 77 -37 18 -93 53 -105 65 -12 12 -52 31 -57 27
-2 -3 -15 5 -28 17 -12 12 -46 30 -74 40 -28 10 -55 23 -59 30 -6 10 -23 20
-76 44 -4 3 -5 -5 -1 -17 8 -25 8 -25 -52 -5 -26 9 -55 25 -64 36 -13 16 -19
18 -41 8 -20 -10 -31 -9 -56 4 -17 9 -40 16 -51 16 -11 0 -23 5 -27 11 -3 6
-20 9 -38 6 -17 -2 -41 0 -54 6 -18 8 -25 8 -32 -2 -6 -11 -29 -12 -101 -7
-52 4 -167 9 -255 11 -130 2 -167 6 -187 20 -18 11 -36 14 -60 10 -29 -6 -39
-2 -61 20 -18 18 -32 24 -46 20 -13 -4 -31 3 -53 19 -19 14 -43 26 -55 26 -12
0 -55 30 -99 70 -72 64 -118 94 -80 52 10 -10 17 -26 17 -35 0 -9 5 -19 10
-22 13 -8 13 -45 0 -45 -6 0 -13 6 -16 14 -7 17 -48 35 -89 38 -16 2 -39 12
-51 23 -12 11 -45 28 -74 38 -28 10 -59 26 -68 35 -12 11 -37 18 -75 19 -31 1
-57 0 -57 -2 0 -2 18 -9 41 -15 33 -9 39 -14 34 -31 -4 -11 -2 -19 4 -19 6 0
11 -5 11 -10 0 -6 -16 -4 -37 5 -21 9 -67 19 -102 22 -58 6 -63 5 -50 -9 8 -9
16 -14 18 -12 2 2 11 -1 18 -8 11 -9 16 -9 23 1 11 19 52 4 48 -17 -2 -11 -11
-16 -26 -14 -13 2 -22 -2 -22 -10 0 -10 -32 -13 -145 -13 -109 0 -145 3 -145
13 0 16 0 16 -51 -8 -24 -11 -36 -20 -26 -20 29 0 19 -20 -10 -20 -16 0 -37
-7 -47 -15 -11 -8 -28 -15 -37 -15 -10 0 -19 -6 -21 -12 -3 -7 -22 -13 -46
-13 -30 0 -41 -3 -38 -12 7 -17 -7 -16 -49 1 -21 9 -37 11 -40 5 -4 -5 1 -9 9
-9 9 0 16 -4 16 -10 0 -14 -20 -12 -54 5 -39 21 -57 18 -23 -3 15 -9 27 -21
27 -26 0 -13 -106 2 -141 19 -16 9 -29 11 -29 5 0 -5 18 -19 41 -30 53 -27 44
-36 -18 -17 -58 17 -176 23 -130 6 15 -6 27 -16 27 -23 0 -7 22 -20 49 -30 87
-31 104 -77 23 -61 -54 11 -291 6 -314 -6 -34 -18 -4 -33 74 -35 40 -1 102
-12 138 -23 36 -11 73 -21 83 -21 9 0 17 -5 17 -11 0 -8 -20 -10 -67 -5 -62 5
-66 5 -49 -9 11 -8 39 -15 61 -15 30 0 47 -6 61 -21 l18 -20 -51 7 c-49 6 -51
5 -46 -14 4 -17 -2 -23 -39 -33 -23 -6 -69 -15 -100 -18 -32 -4 -60 -10 -63
-13 -3 -3 45 -8 107 -12 175 -11 226 -18 200 -27 -28 -11 -30 -39 -2 -32 11 3
20 1 20 -4 0 -17 -36 -43 -58 -43 -11 0 -24 -4 -27 -10 -4 -6 8 -10 29 -10 19
0 46 -4 60 -10 23 -8 26 -7 26 10 0 16 7 20 35 20 19 0 35 -4 35 -10 0 -5 -11
-10 -25 -10 -19 0 -25 -5 -23 -17 2 -11 -14 -25 -51 -45 -29 -15 -47 -28 -39
-28 8 0 40 15 71 34 44 27 65 34 90 29 17 -2 52 2 76 11 25 8 49 12 54 9 5 -3
12 -1 16 4 3 6 16 13 29 17 17 6 22 3 22 -11 0 -23 -43 -43 -92 -43 -21 0 -38
-4 -38 -10 0 -5 -11 -12 -25 -16 -14 -3 -25 -10 -25 -14 0 -5 -10 -10 -22 -12
-13 -2 40 -4 117 -4 110 1 147 5 172 18 18 9 35 12 38 8 3 -5 -5 -14 -17 -21
-22 -12 -22 -12 -3 -19 13 -5 27 -2 40 10 11 9 28 20 38 23 9 4 21 15 24 24 4
10 31 43 60 73 29 30 56 63 59 73 3 9 10 17 15 17 12 0 12 -27 -1 -35 -18 -11
-10 -25 14 -25 13 0 26 6 29 13 8 22 68 46 89 36 10 -5 27 -14 39 -19 11 -6
29 -8 39 -5 11 3 28 2 38 -4 11 -6 35 -12 56 -14 42 -4 56 -14 32 -23 -9 -3
-14 -10 -11 -14 5 -8 35 -5 73 6 22 6 31 -9 12 -21 -22 -14 -8 -22 25 -15 33
8 35 7 29 -13 -6 -20 -5 -21 11 -7 14 11 19 12 22 3 3 -7 9 -13 14 -13 6 0 22
-11 36 -24 14 -13 37 -30 52 -38 14 -7 33 -21 41 -30 8 -10 26 -20 40 -22 17
-2 24 -9 23 -22 -1 -11 4 -22 12 -26 7 -4 16 -20 20 -35 3 -15 17 -39 29 -54
21 -25 50 -80 71 -134 5 -11 7 -28 6 -38 -1 -10 7 -25 18 -35 12 -9 22 -29 23
-44 1 -16 6 -28 10 -28 4 0 8 -13 8 -28 0 -28 9 -53 51 -135 10 -22 19 -45 19
-53 0 -8 7 -14 16 -14 10 0 13 -6 9 -19 -4 -13 0 -20 15 -24 14 -3 20 -13 20
-32 0 -38 89 -162 205 -285 62 -66 67 -71 150 -144 40 -36 48 -47 38 -57 -7
-7 -14 -33 -14 -58 -1 -26 -5 -59 -9 -76 -6 -26 -8 -22 -15 33 -4 34 -11 65
-16 67 -4 3 -13 -22 -20 -55 -12 -61 -23 -67 -39 -24 -17 44 -35 29 -32 -26 3
-32 0 -50 -7 -50 -6 0 -11 12 -11 26 0 16 -4 23 -11 18 -6 -3 -15 0 -20 7 -6
9 -9 -3 -9 -33 0 -27 -4 -48 -10 -48 -9 0 -15 34 -12 70 1 8 -1 22 -4 30 -9
22 -32 -46 -33 -95 -2 -59 -11 -86 -29 -83 -9 2 -20 18 -24 36 -11 41 -26 42
-24 1 2 -51 -21 -46 -29 7 -3 25 -15 60 -26 78 l-20 31 3 -110 2 -110 -24 3
c-33 3 -59 29 -81 80 -10 23 -21 42 -24 42 -4 0 -3 -5 0 -10 11 -18 6 -202 -7
-252 -10 -40 -16 -48 -35 -48 -16 0 -23 6 -23 19 0 11 -4 23 -10 26 -6 4 -10
-11 -10 -39 0 -25 -4 -47 -9 -50 -5 -3 -12 -21 -15 -41 -6 -32 -57 -95 -76
-95 -12 0 -7 40 8 67 9 15 10 35 3 62 -5 22 -6 43 -3 46 6 6 -16 25 -29 25 -6
0 -38 -147 -54 -242 -3 -21 -10 -38 -15 -38 -6 0 -10 -7 -10 -15 0 -8 -7 -15
-15 -15 -21 0 -19 38 5 85 27 52 25 73 -7 101 -37 32 -43 30 -41 -8 0 -18 -6
-58 -14 -88 -9 -30 -12 -57 -8 -60 10 -6 -10 -110 -20 -110 -4 0 -15 11 -24
25 -13 20 -16 39 -10 88 6 58 5 61 -10 41 -10 -15 -16 -48 -18 -103 -2 -57 -7
-81 -15 -81 -7 0 -13 -6 -13 -12 0 -17 15 -40 26 -40 13 0 6 -16 -23 -53 -22
-28 -30 -32 -42 -22 -11 10 -13 8 -7 -10 6 -18 3 -22 -21 -25 -17 -2 -33 -13
-42 -29 -13 -24 -13 -28 1 -43 18 -17 13 -56 -9 -69 -7 -4 -13 -16 -13 -27 0
-16 5 -18 35 -13 19 3 35 2 35 -3 0 -19 -54 -84 -67 -80 -7 3 -13 -1 -13 -9 0
-22 17 -18 40 8 48 52 64 66 71 61 8 -5 -8 -73 -23 -91 -5 -6 -11 -35 -14 -65
-8 -93 -16 -138 -25 -138 -5 0 -9 -4 -9 -10 0 -5 9 -10 20 -10 25 0 25 -5 -1
-46 -16 -27 -18 -34 -6 -34 10 0 14 -9 12 -30 -1 -17 -5 -33 -9 -37 -3 -3 -6
-16 -5 -27 0 -15 2 -17 6 -6 6 16 23 30 36 30 5 0 5 -19 1 -42 -4 -24 -7 -52
-6 -63 1 -10 -3 -24 -8 -30 -6 -7 -6 -24 0 -45 6 -22 6 -38 0 -44 -6 -6 -10
-18 -10 -28 0 -16 3 -17 20 -8 18 10 20 8 20 -25 0 -20 -5 -46 -11 -57 -7 -12
-7 -23 -2 -27 5 -3 12 -14 16 -24 5 -12 15 -17 34 -15 26 3 28 1 25 -31 -1
-18 -12 -47 -23 -63 -21 -28 -20 -58 1 -58 7 0 9 8 5 20 -7 23 16 28 33 8 14
-17 10 -71 -6 -83 -16 -12 -6 -45 13 -45 23 0 27 -18 10 -51 -9 -17 -14 -37
-11 -45 3 -8 -1 -14 -11 -14 -15 0 -15 -1 0 -18 10 -11 14 -26 10 -40 -4 -17
-1 -22 13 -22 16 0 19 -6 16 -45 -4 -44 13 -66 20 -26 3 18 5 18 22 5 17 -12
18 -17 6 -39 -7 -14 -11 -28 -7 -31 3 -3 11 4 17 17 l13 22 12 -23 c10 -19 10
-26 -1 -38 -8 -7 -14 -22 -14 -33 0 -10 -4 -19 -9 -19 -5 0 -7 -9 -4 -21 5
-20 7 -19 18 7 15 37 41 59 50 44 4 -6 1 -17 -7 -23 -20 -17 -43 -90 -30 -95
7 -2 9 -19 5 -45 -11 -78 -10 -82 18 -85 24 -3 27 -7 32 -65 6 -61 36 -153 37
-113 0 13 3 17 10 10 12 -12 15 -71 6 -105 -6 -19 -3 -28 8 -32 9 -4 16 -14
16 -23 0 -9 7 -22 15 -28 13 -9 14 -17 4 -43 -6 -18 -9 -40 -6 -50 4 -14 5
-13 6 5 0 12 6 22 11 22 6 0 10 12 10 27 0 24 2 26 15 12 11 -11 17 -43 19
-113 4 -102 11 -118 47 -109 22 6 22 5 8 -71 -8 -43 -7 -61 1 -72 7 -7 10 -21
6 -29 -3 -10 1 -18 11 -22 25 -10 103 -85 103 -99 0 -7 6 -14 13 -17 9 -3 9
-7 -2 -20 -9 -11 -10 -17 -2 -17 6 0 11 -8 11 -18 0 -9 10 -22 23 -27 15 -7
23 -20 25 -43 3 -29 5 -31 23 -21 16 8 25 6 44 -13 14 -13 25 -31 25 -40 0 -9
5 -20 11 -24 8 -4 7 -9 -2 -15 -19 -13 24 -49 49 -42 12 3 31 -7 51 -25 30
-27 32 -33 24 -63 -11 -40 -5 -129 8 -129 6 0 9 8 7 18 -2 11 3 17 17 17 14 0
20 -7 20 -22 0 -11 3 -25 8 -29 4 -4 7 -24 7 -44 0 -20 7 -45 15 -56 8 -10 15
-26 15 -35 0 -9 7 -19 15 -23 8 -3 15 -12 15 -20 0 -7 7 -16 15 -20 9 -3 15
-17 14 -33 -2 -32 21 -94 28 -75 3 6 13 12 24 12 15 0 17 -5 13 -28 -7 -33 16
-57 46 -49 28 7 43 -15 31 -46 -13 -34 2 -44 29 -17 26 26 44 26 37 -1 -3 -12
-2 -30 4 -40 5 -11 13 -27 18 -38 6 -10 7 -28 4 -39 -2 -11 0 -23 6 -26 6 -4
8 -19 5 -34 -5 -23 -1 -30 20 -40 25 -11 36 -32 17 -32 -4 0 -6 -11 -3 -25 5
-27 18 -33 25 -12 8 25 36 -14 39 -56 3 -37 6 -42 27 -42 30 -1 73 -52 53 -64
-17 -10 9 -34 29 -26 14 5 39 -35 39 -62 0 -7 5 -13 11 -13 7 0 9 -10 7 -24
-3 -13 1 -32 9 -42 12 -16 13 -15 13 14 0 17 -5 43 -12 57 -10 22 -9 28 2 35
19 12 27 -3 35 -62 7 -52 18 -66 39 -49 20 17 26 3 27 -63 0 -34 3 -55 6 -48
9 22 35 14 31 -10 -2 -13 3 -28 10 -33 11 -9 9 -16 -8 -38 -18 -23 -19 -28 -6
-33 8 -3 19 -3 24 0 6 3 13 -5 16 -19 7 -27 26 -34 26 -9 0 8 4 13 9 10 9 -6
21 6 72 66 17 21 28 41 26 45 -3 4 10 19 29 33 18 14 36 33 39 43 4 9 10 17
14 17 4 0 25 25 46 55 21 31 44 59 50 63 12 7 62 62 169 185 27 31 52 57 57
57 14 0 59 42 59 55 0 6 18 27 40 45 22 18 40 38 40 43 0 12 48 57 60 57 4 0
14 14 22 30 7 17 16 30 19 30 4 0 23 15 42 32 19 18 41 38 48 44 28 23 86 90
92 107 3 9 11 16 15 15 5 -2 23 9 40 24 22 19 29 33 25 47 -4 14 -1 21 10 21
8 0 17 13 21 30 3 17 11 30 18 30 21 0 98 125 98 159 0 11 4 21 10 21 5 0 16
16 25 35 9 19 23 39 31 46 8 6 14 18 14 26 0 7 16 37 35 66 19 28 35 60 35 69
0 10 9 27 20 38 11 11 17 26 14 33 -3 8 11 44 30 80 20 36 36 73 36 82 0 8 6
15 14 15 16 0 26 21 26 57 0 21 2 24 15 13 13 -11 15 -8 15 16 0 16 5 36 10
44 8 12 10 12 10 1 0 -11 3 -11 15 -1 8 7 15 26 15 42 0 25 3 28 20 23 18 -6
20 -2 20 37 1 47 18 78 44 78 9 0 16 4 16 10 0 14 55 40 85 40 35 0 57 -13
111 -64 24 -24 63 -49 85 -56 22 -8 43 -18 47 -24 7 -11 45 -43 105 -89 16
-12 50 -40 75 -63 26 -23 52 -40 57 -38 6 2 20 -12 33 -31 12 -20 34 -41 47
-47 14 -6 25 -17 25 -25 0 -7 7 -13 15 -13 8 0 19 -9 25 -19 5 -11 20 -23 32
-27 42 -13 110 -68 121 -97 3 -9 13 -17 22 -17 8 0 15 -4 15 -10 0 -5 7 -10
15 -10 8 0 19 -9 25 -20 6 -11 16 -20 23 -20 15 0 47 -35 47 -51 0 -8 4 -8 14
0 11 10 16 8 21 -8 3 -12 13 -21 20 -21 8 0 21 -9 29 -21 8 -12 19 -18 24 -15
6 3 20 -7 32 -24 19 -27 50 -45 35 -20 -3 6 -1 10 4 10 6 0 11 -7 11 -15 0 -9
7 -18 15 -21 8 -4 30 -20 49 -38 18 -17 48 -43 67 -58 19 -15 48 -38 65 -52
17 -14 34 -23 37 -19 4 3 21 -9 39 -26 64 -62 75 -71 87 -71 6 0 11 -7 11 -15
0 -8 3 -15 8 -15 9 0 172 -155 172 -164 0 -4 18 -23 40 -43 22 -21 40 -41 40
-46 0 -16 45 -57 62 -57 11 0 24 -14 32 -35 13 -30 20 -35 47 -35 23 0 30 -4
25 -15 -3 -9 22 -42 69 -90 41 -41 78 -75 82 -75 5 0 14 -9 21 -20 7 -11 19
-20 28 -20 11 0 14 -6 10 -22 -3 -13 -3 -17 0 -10 9 20 20 14 40 -23 11 -22
26 -35 39 -36 11 0 34 -18 53 -41 17 -22 32 -35 32 -29 0 6 5 11 10 11 6 0 10
-9 10 -21 0 -12 4 -18 11 -13 6 3 14 3 18 -2 14 -20 61 -43 75 -38 10 4 16 1
16 -9 0 -16 57 -47 87 -47 18 0 118 -33 151 -49 25 -13 111 -31 167 -35 28 -3
52 -5 55 -6 10 -4 45 2 55 10 6 5 34 12 64 16 30 4 55 13 58 20 6 16 33 19 33
4 0 -6 11 -3 25 6 24 15 76 21 135 15 14 -1 56 4 95 13 38 9 87 16 108 16 20
0 45 4 55 9 9 5 42 17 72 25 30 9 69 29 86 44 34 29 124 137 124 148 0 4 7 12
16 19 21 15 61 142 70 218 5 40 14 68 30 87 48 56 52 166 14 335 -10 44 -21
107 -24 140 -3 33 -10 82 -15 109 -5 27 -6 59 -1 71 5 14 2 28 -12 45 -12 15
-17 32 -14 46 4 16 1 23 -14 27 -17 4 -19 11 -14 31 4 18 0 33 -14 51 -12 15
-24 46 -28 71 -3 24 -10 47 -15 50 -5 3 -9 21 -9 40 0 19 -4 34 -10 34 -5 0
-10 8 -10 19 0 10 -6 31 -14 46 -8 15 -12 33 -10 40 3 7 1 16 -5 20 -6 3 -11
17 -11 30 0 13 -8 31 -17 41 -10 10 -19 29 -20 43 -1 14 -12 34 -24 43 -11 10
-19 24 -16 31 3 7 -1 21 -9 32 -8 10 -14 26 -14 35 0 8 -9 21 -20 28 -11 7
-20 21 -20 31 0 10 -7 24 -16 32 -10 8 -14 22 -10 40 4 23 1 28 -19 33 -16 4
-30 19 -39 41 -8 19 -20 35 -25 35 -6 0 -11 6 -11 13 0 7 -9 30 -20 52 -11 22
-20 45 -20 52 0 7 -4 13 -10 13 -5 0 -10 6 -10 14 0 7 -8 24 -19 37 -10 13
-24 42 -32 64 -7 22 -19 49 -26 60 -7 11 -13 26 -13 34 0 17 -43 133 -65 174
-8 16 -15 38 -15 50 0 12 -7 31 -15 41 -8 11 -15 34 -15 52 0 18 -4 35 -9 39
-5 3 -17 29 -26 58 -9 28 -20 60 -26 69 -5 10 -9 24 -9 33 0 8 -14 43 -31 77
-16 35 -31 77 -33 93 -2 17 -13 53 -26 80 -25 54 -24 53 -40 140 -6 32 -15 64
-19 70 -5 5 -12 33 -16 60 -4 28 -12 64 -20 80 -7 17 -13 43 -14 59 0 16 -5
34 -11 41 -5 6 -12 29 -14 51 -5 35 -14 83 -47 234 -5 25 -12 65 -15 90 -3 25
-8 52 -10 60 -3 8 -7 56 -10 107 -3 71 -1 93 8 93 9 0 10 3 2 8 -6 4 -13 33
-16 66 -4 51 -2 59 14 64 14 3 16 8 8 17 -17 20 8 30 28 12 21 -19 92 -33 92
-19 0 5 -7 15 -15 22 -9 7 -14 21 -13 30 2 9 -9 31 -25 49 -15 18 -27 39 -27
46 0 8 -8 19 -18 24 -15 9 -15 12 -2 20 9 6 20 41 27 83 13 81 25 131 77 325
20 73 36 142 36 153 0 23 15 25 50 5 14 -8 35 -14 48 -15 12 0 22 -5 22 -12 0
-6 8 -4 20 7 18 16 20 16 35 1 9 -9 27 -16 40 -16 13 0 30 -3 39 -6 9 -3 16
-2 16 2 0 5 -22 19 -50 32 -28 13 -50 25 -50 28 0 7 125 -2 168 -11 57 -13 28
32 -33 52 -40 13 -34 27 14 34 69 9 53 14 -32 10 -64 -3 -88 0 -114 14 -30 16
-35 17 -50 3 -20 -18 -63 -8 -63 15 0 7 -9 30 -20 52 -32 63 -27 77 32 100 28
11 53 26 56 34 4 11 -1 10 -19 -2 -13 -10 -33 -17 -44 -17 -12 0 -26 -5 -33
-12 -8 -8 -15 -8 -21 -2 -17 17 -61 103 -61 118 0 8 -12 27 -26 43 -19 20 -24
35 -20 54 4 23 2 26 -14 22 -13 -3 -20 0 -20 8 -1 8 -35 50 -76 94 -42 44 -87
99 -101 123 -14 23 -29 42 -34 42 -22 0 -6 28 19 34 78 19 118 23 130 13 10
-8 16 -7 22 3 5 8 28 14 57 15 54 2 79 11 86 30 3 7 19 20 36 29 17 9 45 23
61 32 23 12 34 13 44 5 10 -8 27 1 72 40 98 83 214 193 214 202 0 5 20 32 45
60 25 29 45 57 45 63 0 7 6 14 13 17 10 4 10 7 0 18 -19 19 -16 35 9 59 24 22
58 27 58 8 0 -6 11 -1 25 12 14 13 25 31 25 41 0 9 10 24 23 32 12 8 45 36 72
62 53 50 109 79 137 72 10 -3 28 5 40 18 27 26 68 42 68 26 0 -6 -7 -11 -15
-11 -8 0 -15 -4 -15 -10 0 -6 28 -10 63 -10 66 0 202 -43 238 -76 12 -11 27
-14 44 -10 14 4 25 2 25 -4 0 -5 11 -33 25 -62 14 -28 25 -57 25 -64 0 -7 5
-16 11 -20 8 -4 9 1 4 17 -7 23 -7 23 18 -4 15 -15 24 -34 21 -42 -4 -8 -1
-15 5 -15 6 0 11 -9 11 -20 0 -11 4 -20 9 -20 5 0 13 -9 16 -20 3 -11 10 -20
15 -20 12 0 -28 109 -48 133 -13 14 -13 17 -1 17 8 0 19 -4 26 -8 11 -7 63
-117 63 -134 0 -5 6 -16 13 -23 29 -33 37 -45 37 -54 0 -6 11 -18 25 -27 20
-13 28 -14 40 -4 13 11 25 3 79 -54 67 -69 82 -79 73 -46 -5 21 7 28 18 10 11
-17 22 -11 27 14 3 14 0 30 -5 35 -14 14 -2 25 18 18 8 -4 15 -15 15 -26 0
-14 5 -19 16 -14 10 4 33 -11 66 -43 47 -45 50 -47 44 -21 -4 16 -2 27 4 27 5
0 10 6 10 13 0 7 9 19 19 26 11 8 17 19 15 26 -4 8 18 10 82 7 63 -3 85 -2 80
7 -4 6 -27 11 -51 11 -24 0 -56 5 -72 11 -26 10 -27 11 -9 21 14 8 24 8 37 -1
11 -6 29 -11 41 -10 19 0 17 3 -9 12 -52 19 -71 40 -65 75 4 28 6 30 29 21 29
-11 100 -11 128 1 13 5 -3 8 -47 7 -42 -1 -72 3 -80 11 -9 9 -9 12 0 12 23 0
12 18 -18 29 -36 12 -40 24 -6 15 14 -3 33 -1 43 5 17 10 16 10 -4 11 -37 0
-123 21 -123 30 0 4 9 6 20 3 14 -4 22 2 30 21 9 24 15 26 67 27 57 0 166 37
116 38 -13 1 -23 6 -23 11 0 6 -8 10 -17 10 -29 1 -161 68 -135 69 26 1 30 21
3 21 -25 0 -156 102 -145 113 3 2 -9 19 -26 37 -16 18 -30 37 -30 42 0 10 27
6 64 -8 36 -14 13 15 -30 36 -25 13 -53 34 -63 45 -9 12 -28 24 -41 28 -91 21
-116 30 -141 50 -15 12 -28 27 -29 32 0 6 -22 20 -48 32 -46 21 -47 22 -22 32
l25 10 -30 1 c-16 0 -55 9 -85 20 -91 32 -180 22 -180 -20 0 -15 -7 -20 -27
-21 -55 -2 -77 3 -93 23 -9 12 -29 21 -46 22 -23 1 -29 5 -28 24 1 24 -6 28
-22 12 -6 -6 -18 -8 -27 -4 -19 7 -23 24 -7 24 6 0 2 9 -9 21 -16 17 -23 19
-40 10 -14 -8 -21 -8 -21 -1 0 6 -10 8 -23 5 -13 -4 -43 1 -68 10 -78 30 -244
47 -323 34 -53 -9 -86 -8 -142 1 -56 10 -77 10 -88 1 -11 -9 -15 -8 -20 4 -6
18 -97 19 -181 3 -27 -5 -78 -11 -113 -13 -35 -3 -93 -12 -129 -20 -35 -8 -68
-13 -72 -11 -4 3 -29 -6 -56 -19 -27 -14 -54 -25 -61 -25 -24 0 -255 -108
-306 -142 -14 -10 -28 -18 -31 -18 -3 0 -15 26 -27 58 -40 104 -53 132 -62
132 -5 0 -12 8 -15 18 -4 9 -24 44 -45 76 -21 33 -38 70 -38 84 0 15 -15 39
-40 64 -22 22 -40 44 -40 49 0 5 -4 9 -10 9 -13 0 -42 58 -35 70 12 20 -8 59
-35 69 -22 7 -27 14 -23 31 4 14 -2 29 -17 45 -12 13 -20 30 -17 38 4 10 -1
13 -19 9 -21 -4 -24 -1 -24 27 0 22 -11 44 -38 74 -42 46 -72 103 -72 135 0
12 -22 44 -49 72 -42 44 -49 57 -53 101 -5 45 -10 55 -61 102 -45 42 -56 60
-62 95 -5 34 -18 55 -56 93 -32 32 -50 60 -55 84 -3 19 -18 46 -33 60 -98 92
-99 94 -111 151 -10 48 -20 65 -64 108 -50 51 -76 103 -76 157 0 61 -19 93
-70 121 -27 16 -50 34 -50 42 0 8 -3 16 -7 18 -12 5 -43 99 -43 128 0 36 -35
89 -68 101 -46 17 -69 47 -77 97 -10 65 -29 98 -74 127 -53 33 -88 81 -115
158 -23 67 -62 125 -83 126 -26 2 -95 76 -141 153 -26 44 -57 85 -69 91 -13 6
-23 13 -23 16 0 6 -118 161 -203 266 -13 17 -28 38 -33 47 -5 9 -28 38 -51 65
-23 26 -74 86 -115 133 -40 47 -95 106 -122 130 -88 81 -110 104 -153 160 -23
31 -93 114 -155 186 -62 72 -161 186 -219 255 -59 68 -128 147 -155 174 -27
28 -91 98 -142 157 -51 59 -102 114 -112 121 -11 8 -17 16 -14 20 6 5 -38 51
-75 77 -12 8 -21 18 -21 22 0 11 -32 47 -91 102 -34 31 -164 171 -188 202 -12
15 -21 25 -21 22 0 -3 -94 88 -208 201 -267 264 -378 370 -477 456 -178 156
-233 186 -278 153 -16 -12 -13 -20 33 -88 28 -41 63 -86 79 -100 15 -14 47
-50 71 -80 24 -30 67 -80 95 -111 80 -89 147 -167 178 -210 16 -21 33 -39 38
-39 5 0 9 -5 9 -11 0 -7 10 -22 23 -33 12 -12 27 -29 32 -38 12 -19 163 -198
179 -213 6 -5 29 -34 51 -62 21 -29 42 -53 46 -53 3 0 28 -27 54 -61 26 -33
55 -68 64 -77 9 -10 34 -39 55 -67 22 -27 44 -54 50 -60 6 -5 24 -28 41 -50
16 -22 39 -51 50 -64 11 -12 30 -35 43 -50 12 -14 28 -33 35 -41 8 -8 29 -35
48 -60 44 -58 75 -96 124 -154 22 -26 44 -55 49 -63 7 -14 44 -62 230 -303 20
-25 57 -72 83 -105 71 -88 153 -211 186 -280 16 -33 45 -73 64 -89 34 -29 102
-125 141 -202 11 -22 45 -65 76 -96 37 -37 69 -84 92 -132 26 -55 53 -91 103
-139 57 -56 70 -75 84 -123 9 -32 20 -60 25 -63 4 -3 18 -22 29 -41 12 -19 40
-53 63 -75 48 -46 74 -93 85 -150 10 -58 29 -89 84 -135 27 -23 55 -56 61 -73
18 -47 72 -158 91 -187 9 -14 19 -44 23 -68 7 -46 39 -105 76 -137 33 -29 60
-93 60 -144 0 -39 5 -48 48 -90 28 -26 55 -65 65 -91 9 -25 25 -57 34 -71 10
-15 30 -45 45 -67 15 -22 33 -62 39 -89 6 -26 20 -57 30 -68 9 -11 28 -45 42
-75 13 -30 38 -71 55 -90 33 -36 62 -106 62 -151 0 -15 15 -49 33 -75 18 -27
37 -58 42 -69 9 -21 10 -24 20 -100 4 -27 14 -60 21 -72 8 -13 26 -55 40 -95
15 -40 39 -97 55 -128 33 -66 78 -198 85 -249 2 -20 8 -49 13 -66 5 -16 9 -66
10 -110 1 -102 7 -128 42 -194 31 -58 35 -81 18 -113 -26 -49 -151 -64 -234
-27 -27 12 -67 21 -89 21 -60 -2 -72 5 -111 55 -24 31 -33 53 -29 65 4 14 0
21 -14 25 -11 3 -25 17 -31 32 -6 14 -40 58 -76 96 -35 39 -71 89 -80 113 -12
30 -27 48 -53 62 -21 11 -52 33 -71 49 -30 26 -33 34 -28 66 7 44 -20 79 -78
97 -49 16 -105 85 -105 131 0 43 -8 53 -60 75 -55 24 -77 48 -82 87 -2 24 -12
35 -51 55 -41 22 -53 35 -85 99 -25 52 -46 79 -67 90 -41 22 -95 76 -95 95 0
24 -46 92 -76 113 -14 10 -45 36 -69 58 -34 32 -45 50 -54 95 -18 87 -40 113
-131 155 -19 9 -43 23 -53 33 -26 23 -67 106 -67 134 0 13 -7 34 -17 47 -9 13
-16 37 -17 54 -1 35 -21 47 -29 18 -5 -19 -8 -19 -30 -8 -54 28 -126 92 -143
126 -9 20 -21 44 -25 53 -5 10 -9 26 -9 37 0 23 -74 89 -110 98 -47 11 -95 41
-136 85 -53 56 -68 82 -87 148 -20 70 -56 103 -135 125 -55 15 -111 88 -127
165 -9 44 -66 115 -108 135 -88 43 -125 84 -158 174 -7 20 -32 48 -63 72 -122
92 -138 112 -166 207 -7 23 -19 42 -27 42 -7 0 -16 7 -19 15 -4 8 -13 15 -20
15 -8 0 -17 7 -20 15 -4 8 -11 15 -18 15 -24 0 -116 102 -126 140 -10 38 -88
120 -114 120 -19 0 -82 72 -116 134 -20 34 -50 70 -74 87 -85 60 -135 105
-144 129 -12 31 -95 125 -187 210 -88 82 -400 400 -434 442 -77 95 -163 183
-701 708 -515 503 -624 609 -715 690 -38 34 -106 97 -151 139 -44 42 -111 103
-149 136 -38 33 -94 82 -124 109 -63 55 -169 149 -221 196 -19 18 -69 57 -110
88 -41 31 -96 74 -122 97 -26 23 -77 61 -115 84 -37 23 -79 51 -93 61 -31 24
-124 38 -135 20z"/>
<path d="M2820 11440 c0 -5 5 -10 10 -10 6 0 10 5 10 10 0 6 -4 10 -10 10 -5
0 -10 -4 -10 -10z"/>
<path d="M3102 11409 c4 -12 78 -41 78 -30 0 8 -58 41 -72 41 -5 0 -8 -5 -6
-11z"/>
<path d="M2703 11395 c0 -8 7 -15 15 -15 12 0 12 3 2 15 -7 8 -13 15 -15 15
-1 0 -2 -7 -2 -15z"/>
<path d="M2670 11350 l-35 -7 45 -2 c25 0 52 4 60 9 12 8 10 9 -10 9 -14 -1
-41 -5 -60 -9z"/>
<path d="M2034 11235 c11 -8 25 -15 30 -15 6 0 2 7 -8 15 -11 8 -25 15 -30 15
-6 0 -2 -7 8 -15z"/>
<path d="M1708 11153 c6 -2 18 -2 25 0 6 3 1 5 -13 5 -14 0 -19 -2 -12 -5z"/>
<path d="M1790 11140 c0 -5 5 -10 11 -10 5 0 7 5 4 10 -3 6 -8 10 -11 10 -2 0
-4 -4 -4 -10z"/>
<path d="M1825 11130 c3 -5 11 -10 16 -10 6 0 7 5 4 10 -3 6 -11 10 -16 10 -6
0 -7 -4 -4 -10z"/>
<path d="M4578 11083 c7 -3 16 -2 19 1 4 3 -2 6 -13 5 -11 0 -14 -3 -6 -6z"/>
<path d="M4630 11070 c0 -5 5 -10 11 -10 5 0 7 5 4 10 -3 6 -8 10 -11 10 -2 0
-4 -4 -4 -10z"/>
<path d="M1810 10899 c0 -5 5 -7 10 -4 6 3 10 8 10 11 0 2 -4 4 -10 4 -5 0
-10 -5 -10 -11z"/>
<path d="M1728 10873 c-10 -2 -18 -9 -18 -15 0 -5 7 -7 16 -4 9 3 20 6 25 6 5
0 9 5 9 10 0 10 -3 11 -32 3z"/>
<path d="M1778 10853 c6 -2 18 -2 25 0 6 3 1 5 -13 5 -14 0 -19 -2 -12 -5z"/>
<path d="M1900 10730 c0 -5 9 -10 20 -10 11 0 20 5 20 10 0 6 -9 10 -20 10
-11 0 -20 -4 -20 -10z"/>
<path d="M1820 10642 c0 -5 14 -7 30 -4 17 2 30 6 30 8 0 2 -13 4 -30 4 -16 0
-30 -4 -30 -8z"/>
<path d="M11565 10470 c3 -5 16 -10 28 -9 21 0 21 1 2 9 -28 12 -37 12 -30 0z"/>
<path d="M11736 10364 c-5 -14 -4 -15 9 -4 17 14 19 20 6 20 -5 0 -12 -7 -15
-16z"/>
<path d="M9445 9470 c-3 -5 -2 -10 4 -10 5 0 13 5 16 10 3 6 2 10 -4 10 -5 0
-13 -4 -16 -10z"/>
<path d="M3212 8725 c0 -16 2 -22 5 -12 2 9 2 23 0 30 -3 6 -5 -1 -5 -18z"/>
<path d="M2994 8387 c-3 -8 -6 -29 -8 -48 -2 -19 -6 -42 -11 -52 -13 -30 3
-31 18 0 8 15 15 47 16 71 1 42 -5 54 -15 29z"/>
<path d="M3090 6840 c0 -5 5 -10 10 -10 6 0 10 5 10 10 0 6 -4 10 -10 10 -5 0
-10 -4 -10 -10z"/>
<path d="M3235 6220 c-3 -5 -1 -10 4 -10 6 0 11 5 11 10 0 6 -2 10 -4 10 -3 0
-8 -4 -11 -10z"/>
</g>
</svg>
